<svg xmlns="http://www.w3.org/2000/svg" xmlns:xlink="http://www.w3.org/1999/xlink" width="1219.488" height="941.52" viewBox="0 0 1219.488 941.52">
  <defs>
    <linearGradient id="linear-gradient" y1="0.5" x2="1" y2="0.5" gradientUnits="objectBoundingBox">
      <stop offset="0" stop-color="#010101" stop-opacity="0"/>
      <stop offset="0.95" stop-color="#010101"/>
    </linearGradient>
    <linearGradient id="linear-gradient-2" x1="0.202" y1="1.05" x2="1.014" y2="-0.412" xlink:href="#linear-gradient"/>
    <linearGradient id="linear-gradient-3" x1="0.646" y1="0.304" x2="-0.276" y2="1.543" xlink:href="#linear-gradient"/>
    <linearGradient id="linear-gradient-4" x1="0.475" y1="0.567" x2="0.923" y2="-0.624" gradientUnits="objectBoundingBox">
      <stop offset="0" stop-color="#fff" stop-opacity="0"/>
      <stop offset="0.66" stop-color="#fff"/>
    </linearGradient>
    <linearGradient id="linear-gradient-5" x1="0.572" y1="0.252" x2="0.392" y2="0.885" xlink:href="#linear-gradient"/>
    <linearGradient id="linear-gradient-6" x1="0.499" y1="-0.265" x2="0.506" y2="2.708" xlink:href="#linear-gradient"/>
    <linearGradient id="linear-gradient-7" x1="0.877" y1="-0.981" x2="-0.691" y2="5.229" xlink:href="#linear-gradient"/>
    <linearGradient id="linear-gradient-8" x1="0.366" y1="0.191" x2="1.316" y2="2.388" xlink:href="#linear-gradient"/>
    <linearGradient id="linear-gradient-9" x1="0.102" y1="-0.389" x2="2.92" y2="5.546" xlink:href="#linear-gradient"/>
    <linearGradient id="linear-gradient-10" x1="0.514" y1="0.107" x2="0.375" y2="3.369" xlink:href="#linear-gradient"/>
    <linearGradient id="linear-gradient-11" x1="-0.116" y1="0.113" x2="1.08" y2="0.895" xlink:href="#linear-gradient"/>
    <linearGradient id="linear-gradient-12" x1="0.967" y1="0.494" x2="-0.882" y2="0.52" xlink:href="#linear-gradient"/>
    <linearGradient id="linear-gradient-13" x1="0.185" y1="-0.025" x2="0.846" y2="1.688" xlink:href="#linear-gradient"/>
    <linearGradient id="linear-gradient-14" x1="0.428" y1="-0.406" x2="0.539" y2="1.034" xlink:href="#linear-gradient"/>
    <linearGradient id="linear-gradient-15" x1="0.463" y1="-0.768" x2="0.525" y2="1.324" xlink:href="#linear-gradient"/>
    <linearGradient id="linear-gradient-16" x1="0" y1="0.5" x2="1" y2="0.5" xlink:href="#linear-gradient"/>
    <linearGradient id="linear-gradient-17" x1="0.89" y1="-0.141" x2="-0.42" y2="2.054" xlink:href="#linear-gradient"/>
    <linearGradient id="linear-gradient-18" x1="-0.011" y1="0.838" x2="0.734" y2="0.3" xlink:href="#linear-gradient"/>
    <linearGradient id="linear-gradient-19" x1="3.966" y1="-0.237" x2="4.464" y2="-1.19" xlink:href="#linear-gradient-4"/>
    <linearGradient id="linear-gradient-20" x1="1.03" y1="0.436" x2="-0.734" y2="0.685" xlink:href="#linear-gradient"/>
    <linearGradient id="linear-gradient-21" x1="0.102" y1="0.989" x2="0.963" y2="0.164" xlink:href="#linear-gradient-4"/>
    <linearGradient id="linear-gradient-22" x1="0.466" y1="0.471" x2="1.208" y2="-0.249" xlink:href="#linear-gradient-4"/>
    <linearGradient id="linear-gradient-23" x1="1.002" y1="0.354" x2="-1.484" y2="1.008" xlink:href="#linear-gradient"/>
    <linearGradient id="linear-gradient-24" x1="1.005" y1="0.354" x2="-1.482" y2="1.009" xlink:href="#linear-gradient"/>
    <linearGradient id="linear-gradient-25" x1="-0.319" y1="-0.072" x2="1.835" y2="1.581" xlink:href="#linear-gradient"/>
  </defs>
  <g id="card_payment_online_1" transform="translate(-0.053 -0.052)">
    <path id="Path_1" data-name="Path 1" d="M1231.338,678.386a370.53,370.53,0,0,1-45.614,137.258c-42.514,73.81-113.2,131.684-195.062,155.208-100.364,28.867-208.038,5.921-307.893-24.8s-199.341-69.6-303.776-72.607c-65.992-1.989-133.58,10.409-197.282-7.24C116.829,848.282,63.4,798.157,35.987,736.676A229.435,229.435,0,0,1,17.76,674.223c-7.309-52.183,2.151-105.037,6.939-157.5,5.459-58.983,5.089-118.684,18.019-176.465S84.053,225.185,133.784,193.08C238.358,125.63,382.578,195,499.62,152.647,578.958,124.011,640.139,45.714,724.428,42.683c105.615-3.77,278.24,88.568,345.342,168.855,39.183,46.863,66.339,102.516,91.945,158.006,29.607,64.072,57.943,129.833,68.49,199.572A396.959,396.959,0,0,1,1231.338,678.386Z" transform="translate(-15.03 -42.52)" fill="#feb30b" opacity="0.24" style="isolation: isolate"/>
    <path id="Path_2" data-name="Path 2" d="M1219.472,408.485a370.536,370.536,0,0,1-45.614,137.258c-42.514,73.81-113.2,131.683-195.062,155.208-100.364,28.867-208.038,5.921-307.893-24.8s-199.341-69.6-303.776-72.607c-65.992-1.989-133.58,10.409-197.282-7.24C104.962,578.38,51.53,528.256,24.12,466.774a81.3,81.3,0,0,1,8.72-7.957c57.549-45.036,147.389-32.105,214.4-49.754,45.082-11.889,85.977-35.714,127.751-56.462a1031.636,1031.636,0,0,1,326.583-99.323c56.462-7.309,115.654-9.6,168.415,12.028,81.189,33.193,140.149,119.933,227.676,125.6,23.617,1.55,47.233-3.238,70.85-1.989C1186.927,389.957,1206.565,395.879,1219.472,408.485Z" transform="translate(-3.163 227.381)" fill="#feb30b" opacity="0.24" style="isolation: isolate"/>
    <path id="Path_3" data-name="Path 3" d="M474.611,263.642s209.195,191.176,162.077,254.9c-38.05,51.512-140.357,87.619-178.107,99.578a37.009,37.009,0,0,1-27.41-2.059L204.189,505.173a10.733,10.733,0,0,1,3.146-20.239c46.377-6.939,124.629-22.275,147.551-49.5C388.148,395.949,231.6,242.87,231.6,242.87Z" transform="translate(225.419 220.487)" fill="#feb30b"/>
    <path id="Path_4" data-name="Path 4" d="M474.611,263.642s209.195,191.176,162.077,254.9c-38.05,51.512-140.357,87.619-178.107,99.578a37.009,37.009,0,0,1-27.41-2.059L204.189,505.173a10.733,10.733,0,0,1,3.146-20.239c46.377-6.939,124.629-22.275,147.551-49.5C388.148,395.949,231.6,242.87,231.6,242.87Z" transform="translate(225.419 220.487)" fill="url(#linear-gradient)"/>
    <path id="Path_5" data-name="Path 5" d="M475.276,257.325S684.448,448.5,637.354,512.226C599.281,563.738,497,599.846,459.131,611.8a37.009,37.009,0,0,1-27.41-2.059L204.739,498.9a10.733,10.733,0,0,1,3.146-20.239c46.377-6.939,124.629-22.275,147.551-49.5C388.7,389.679,232.149,236.6,232.149,236.6Z" transform="translate(226.141 212.254)" fill="#feb30b"/>
    <path id="Path_6" data-name="Path 6" d="M259.6,347.8,494.424,470.4s36.362-20.818,42.607-35.321S307.411,310.4,307.411,310.4l-31.874,21.812Z" transform="translate(306.04 309.159)" fill="url(#linear-gradient-2)"/>
    <path id="Path_7" data-name="Path 7" d="M676.284,801.9,189.1,555.556c-21.373-10.8-34.534-30.787-34.534-52.391V109.595c0-46.562,57.549-75.684,103.58-52.391L745.4,303.639c21.373,10.8,34.534,30.787,34.534,52.391V749.484C779.864,796.116,722.268,825.168,676.284,801.9Z" transform="translate(168.128 -34.071)" fill="#feb30b"/>
    <path id="Path_8" data-name="Path 8" d="M779.887,356.057V749.511c0,27.294-19.777,48.575-45.406,56.832a76.794,76.794,0,0,1-58.174-4.418L189.081,555.56c-21.35-10.825-34.511-30.81-34.511-52.391V109.622c0-19.592,10.178-36.061,25.444-46.817a76.332,76.332,0,0,1,78.205-5.6L745.4,303.643C766.7,314.468,779.887,334.407,779.887,356.057Z" transform="translate(168.128 -34.075)" fill="url(#linear-gradient-3)"/>
    <path id="Path_9" data-name="Path 9" d="M759.995,360.351V753.805c0,19.638-10.224,36.107-25.444,46.886a76.794,76.794,0,0,1-58.174-4.418l-487.3-246.366c-21.35-10.825-34.511-30.81-34.511-52.391V103.969c0-19.592,10.178-36.061,25.444-46.817A76.47,76.47,0,0,1,238.4,61.5L725.484,307.937C746.833,318.762,759.995,338.7,759.995,360.351Z" transform="translate(168.128 -28.423)" fill="url(#linear-gradient-4)"/>
    <path id="Path_10" data-name="Path 10" d="M241.71,202.956l424.1,215.116a15.058,15.058,0,0,1,8.142,14.9h0a15.035,15.035,0,0,1-21.535,12.051L183.606,217.9a15.035,15.035,0,0,1-8.188-16.492l1.573-7.957a15.035,15.035,0,0,1,19.754-11.242S241.109,202.655,241.71,202.956Z" transform="translate(195.114 139.705)" fill="url(#linear-gradient-5)"/>
    <path id="Path_11" data-name="Path 11" d="M703.464,262.326l-335.072,169.5c-21.812,11.056-59.885,9.646-85.052-3.053L80.483,326.19c-17.163-8.7-23.871-20.355-19.522-30.417,2.66,6.43,9.252,12.722,19.522,17.95l170.15,86.046,24.657,12.4,8.049,4.117a19.119,19.119,0,0,0,2.706,1.249,34.99,34.99,0,0,0,3.423,1.527,29.755,29.755,0,0,0,3.215,1.226,15.89,15.89,0,0,0,2.313.763c1.411.486,2.868.948,4.349,1.365a36.278,36.278,0,0,0,4.418,1.18,40.5,40.5,0,0,0,4.626.995c3.053.578,6.176,1.11,9.252,1.48.925.116,1.874.231,2.868.278s2.313.231,3.585.3c16.469.995,32.707-1.365,44.3-7.24L691.112,256.15Z" transform="translate(43.521 237.925)" fill="#feb30b"/>
    <path id="Path_12" data-name="Path 12" d="M703.464,262.326l-335.072,169.5c-21.812,11.056-59.885,9.646-85.052-3.053L80.483,326.19c-17.163-8.7-23.871-20.355-19.522-30.417,2.66,6.43,9.252,12.722,19.522,17.95l170.15,86.046,24.657,12.4,8.049,4.117a19.119,19.119,0,0,0,2.706,1.249c1.11.532,2.313,1.064,3.423,1.527a29.741,29.741,0,0,0,3.215,1.226c.786.3,1.55.532,2.313.763,1.411.486,2.868.948,4.349,1.365s2.938.81,4.418,1.18,3.053.694,4.626.995c3.053.578,6.176,1.11,9.252,1.48.925.116,1.943.231,2.868.278s2.313.231,3.585.3c16.469.995,32.707-1.365,44.3-7.24L691.112,256.15Z" transform="translate(43.521 237.925)" fill="url(#linear-gradient-6)"/>
    <path id="Path_13" data-name="Path 13" d="M691.122,340,368.4,503.26c-18.643,9.484-49.176,9.831-73.394,1.642a54.968,54.968,0,0,1-8.952-3.516,19.137,19.137,0,0,1-2.706-1.249L275.3,496.02l-24.657-12.4L80.493,397.483c-10.27-5.228-16.862-11.565-19.522-17.949-3.747-9.252.532-18.5,13.485-25.1L394.978,192.29,611.714,300.311l43.948,21.951Z" transform="translate(43.512 154.071)" fill="#feb30b"/>
    <path id="Path_14" data-name="Path 14" d="M106.073,303.535c-.486,5.968,3.4,11.565,8.42,14.966a50.426,50.426,0,0,0,16.839,6.13c38.351,9.021,77.835,18.065,116.787,12.1a13.485,13.485,0,0,0,8.165-3.331c2.313-2.591,2.5-6.523,3.978-9.738,3.1-6.8,11.565-9.252,19.106-9.252s15.1,1.735,22.344-.139,13.879-9.252,11.288-16.377c-1.665-4.487-6.315-6.939-10.663-8.975A267.716,267.716,0,0,0,184.6,264.189c-16.932.463-24.657,5.783-38.86,13.231C134.339,283.411,107.438,286.95,106.073,303.535Z" transform="translate(104.394 248.413)" fill="url(#linear-gradient-7)"/>
    <path id="Path_15" data-name="Path 15" d="M488.442,196.52l43.995,21.928L171.712,401.019l-.879.463-8.05-4-10.779-5.366L127.07,379.831l.3-.116Z" transform="translate(166.784 257.978)" fill="url(#linear-gradient-8)"/>
    <path id="Path_16" data-name="Path 16" d="M394.29,215.045l-1.064.532a51.558,51.558,0,0,0-8.466-5.3Z" transform="translate(470.385 177.694)" fill="url(#linear-gradient-9)"/>
    <path id="Path_17" data-name="Path 17" d="M394.29,215.045l-1.064.532a51.558,51.558,0,0,0-8.466-5.3Z" transform="translate(470.385 177.694)" fill="#feb30b"/>
    <path id="Path_18" data-name="Path 18" d="M759.995,514.988v37.217c0,19.638-10.224,36.107-25.444,46.886a76.8,76.8,0,0,1-58.174-4.418l-487.3-246.366c-21.35-10.825-34.511-30.81-34.511-52.391V208.505l2.174-1.665Z" transform="translate(168.128 173.177)" fill="url(#linear-gradient-10)"/>
    <path id="Path_19" data-name="Path 19" d="M478.14,348.057,257.241,234.97c-21.9-11.218-40.594-41.635-41.635-68.12l-.555-12.722c-1.133-26.415,15.706-38.721,37.611-27.5l220.9,113.086c21.9,11.2,40.595,41.635,41.635,68.12l.555,12.722C516.884,346.947,500.045,359.275,478.14,348.057Z" transform="translate(247.472 62.4)" fill="#feb30b"/>
    <path id="Path_23" data-name="Path 23" d="M131,254.35l-1.318-.625,8.466-17.626a21.837,21.837,0,0,1,3.192-5.3,11.334,11.334,0,0,1,4.927-3.238,4.624,4.624,0,0,1,1.365-.254,3.377,3.377,0,0,1,2.012.879,9.854,9.854,0,0,1,2.8,6.43,49.615,49.615,0,0,1-.671,17.232l-1.434-.3a47.857,47.857,0,0,0,.671-16.724,8.466,8.466,0,0,0-2.313-5.528,1.8,1.8,0,0,0-1.11-.532h0a2.311,2.311,0,0,0-.81.162,9.83,9.83,0,0,0-4.3,2.845,20.514,20.514,0,0,0-2.961,4.95Z" transform="translate(135.445 200.055)" fill="#feb30b"/>
    <path id="Path_24" data-name="Path 24" d="M168.7,236.61q.3,11.334.879,22.691a123.148,123.148,0,0,0,4.3,30.671,3.391,3.391,0,0,1-2.035,5.227c-8.466,3.909-17.117,7.841-26.369,8.928a88.563,88.563,0,0,1-24.172-1.6,1.991,1.991,0,0,1-.879-.3c-.509-.416-.416-1.226-.278-1.874,1.827-8.928.648-18.227,1.989-27.248s5.32-17.579,9.252-25.93c1.712-3.632,3.655-3.632,7.564-4.441l14.156-2.914C154.409,239.548,168.7,237,168.7,236.61Z" transform="translate(122.791 212.267)" fill="#feb30b"/>
    <path id="Path_25" data-name="Path 25" d="M168.7,236.61q.3,11.334.879,22.691a123.148,123.148,0,0,0,4.3,30.671,3.391,3.391,0,0,1-2.035,5.227c-8.466,3.909-17.117,7.841-26.369,8.928a88.563,88.563,0,0,1-24.172-1.6,1.991,1.991,0,0,1-.879-.3c-.509-.416-.416-1.226-.278-1.874,1.827-8.928.648-18.227,1.989-27.248s5.32-17.579,9.252-25.93c1.712-3.632,3.655-3.632,7.564-4.441l14.156-2.914C154.409,239.548,168.7,237,168.7,236.61Z" transform="translate(122.791 212.267)" fill="url(#linear-gradient-11)"/>
    <path id="Path_26" data-name="Path 26" d="M158.4,190.467c-4.325.74-7.078,4.927-9.252,8.72a98.93,98.93,0,0,0-8.859,17.88,87.732,87.732,0,0,0-3.608,19.754c-.81,8.628-1.318,17.256-1.527,25.93,0,2.729.185,6.014,2.591,7.355a5.089,5.089,0,0,0,5.69-.995,12.745,12.745,0,0,0,3.1-5.3c2.313-6.292,3.215-13,5.736-19.175,1.6-3.955,3.793-7.633,5.574-11.565A58.5,58.5,0,0,0,159,189.38Z" transform="translate(142.628 150.25)" fill="#feb30b"/>
    <path id="Path_27" data-name="Path 27" d="M158.4,190.467c-4.325.74-7.078,4.927-9.252,8.72a98.93,98.93,0,0,0-8.859,17.88,87.732,87.732,0,0,0-3.608,19.754c-.81,8.628-1.318,17.256-1.527,25.93,0,2.729.185,6.014,2.591,7.355a5.089,5.089,0,0,0,5.69-.995,12.745,12.745,0,0,0,3.1-5.3c2.313-6.292,3.215-13,5.736-19.175,1.6-3.955,3.793-7.633,5.574-11.565A58.5,58.5,0,0,0,159,189.38Z" transform="translate(142.628 150.25)" fill="url(#linear-gradient-12)"/>
    <path id="Path_28" data-name="Path 28" d="M134.748,234.982a12.884,12.884,0,0,0,1.48,7.217,6.245,6.245,0,0,0,6.245,3.215,5.76,5.76,0,0,0,4.325-5.852,11.381,11.381,0,0,1,0-3.192c.139-.555.439-1.064.578-1.619.463-1.874-.879-3.724-1.11-5.644s.416-3.516-.347-5.042a6.477,6.477,0,0,0-8.211-1.6C135.118,224.5,134.841,232.021,134.748,234.982Z" transform="translate(142.035 192.615)" fill="#f3a984"/>
    <path id="Path_29" data-name="Path 29" d="M134.678,256.684l-1.388-.416,5.528-18.759a21.417,21.417,0,0,1,2.313-5.736,11.566,11.566,0,0,1,4.325-4,4.209,4.209,0,0,1,1.318-.463,3.239,3.239,0,0,1,2.1.532,9.762,9.762,0,0,1,3.817,5.921,49.8,49.8,0,0,1,2.1,17.117h-1.457a48.065,48.065,0,0,0-2.036-16.608,8.535,8.535,0,0,0-3.169-5.066,1.712,1.712,0,0,0-1.18-.347,2.315,2.315,0,0,0-.833.3,10.062,10.062,0,0,0-3.77,3.47,21.811,21.811,0,0,0-2.128,5.389Z" transform="translate(140.185 200.034)" fill="#feb30b"/>
    <path id="Path_30" data-name="Path 30" d="M166.788,235.91c1.434,7.448,2.961,14.873,4.626,22.275a122.317,122.317,0,0,0,9.252,29.584,4.626,4.626,0,0,1,.74,3.516,4.373,4.373,0,0,1-1.92,1.966c-7.726,5.2-15.613,10.5-24.588,13.046a88.586,88.586,0,0,1-24.1,2.313,1.78,1.78,0,0,1-.925-.139c-.578-.347-.6-1.133-.578-1.8.393-9.113-2.313-18.088-2.313-27.2s2.313-18.227,4.927-27.086c1.11-3.863,3.03-4.164,6.754-5.6l13.485-5.135C153.164,241.115,166.881,236.326,166.788,235.91Z" transform="translate(131.9 211.348)" fill="#feb30b"/>
    <path id="Path_31" data-name="Path 31" d="M166.788,235.91c1.434,7.448,2.961,14.873,4.626,22.275a122.317,122.317,0,0,0,9.252,29.584,4.626,4.626,0,0,1,.74,3.516,4.373,4.373,0,0,1-1.92,1.966c-7.726,5.2-15.613,10.5-24.588,13.046a88.586,88.586,0,0,1-24.1,2.313,1.78,1.78,0,0,1-.925-.139c-.578-.347-.6-1.133-.578-1.8.393-9.113-2.313-18.088-2.313-27.2s2.313-18.227,4.927-27.086c1.11-3.863,3.03-4.164,6.754-5.6l13.485-5.135C153.164,241.115,166.881,236.326,166.788,235.91Z" transform="translate(131.9 211.348)" fill="url(#linear-gradient-13)"/>
    <path id="Path_32" data-name="Path 32" d="M149.3,314.129a3.724,3.724,0,0,0,.995,2.2,3.793,3.793,0,0,0,2.8.6,31.412,31.412,0,0,0,15.752-5.667c1.781-1.272,3.608-3.493,2.544-5.389a4.626,4.626,0,0,0-3.169-1.781,28.219,28.219,0,0,0-6.546-.671,3.285,3.285,0,0,1-1.642-.231c-.971-.532-1.11-1.85-1.11-2.961,0-11.033.208-22.09.9-33.1a29.33,29.33,0,0,0-.139-7.4,9.553,9.553,0,0,0-3.77-6.2c-2.5-1.619-7.864-1.411-9.368,1.689-.625,1.318,0,3.146.116,4.626.208,2.544.254,5.112.324,7.656.208,9.969-.185,19.939.324,29.885A114.546,114.546,0,0,0,149.3,314.129Z" transform="translate(157.231 233.169)" fill="#f3a984"/>
    <path id="Path_33" data-name="Path 33" d="M159.4,275.54a1.9,1.9,0,0,0-.185,1.48,6.431,6.431,0,0,1-.694,4.164c-1.411,2.313-4.464,2.66-7.078,2.521-1.342,0-2.938-.116-3.7.995a3.446,3.446,0,0,0-.37,2.1,18.767,18.767,0,0,0,.254,2.776,1.965,1.965,0,0,0,.278.9,1.711,1.711,0,0,0,.9.578,11.1,11.1,0,0,0,7.633-1.041l13.023-5.228c4.626-1.827,6.292-6.014,1.064-8.651C168.465,275.146,160.9,273.55,159.4,275.54Z" transform="translate(158.628 262.136)" fill="#feb30b"/>
    <path id="Path_34" data-name="Path 34" d="M159.4,275.54a1.9,1.9,0,0,0-.185,1.48,6.431,6.431,0,0,1-.694,4.164c-1.411,2.313-4.464,2.66-7.078,2.521-1.342,0-2.938-.116-3.7.995a3.446,3.446,0,0,0-.37,2.1,18.767,18.767,0,0,0,.254,2.776,1.965,1.965,0,0,0,.278.9,1.711,1.711,0,0,0,.9.578,11.1,11.1,0,0,0,7.633-1.041l13.023-5.228c4.626-1.827,6.292-6.014,1.064-8.651C168.465,275.146,160.9,273.55,159.4,275.54Z" transform="translate(158.628 262.136)" fill="url(#linear-gradient-14)"/>
    <path id="Path_35" data-name="Path 35" d="M160.245,318.294a3.84,3.84,0,0,0,.995,2.313,3.747,3.747,0,0,0,2.8.578,31.412,31.412,0,0,0,15.775-5.852c1.781-1.249,3.608-3.47,2.521-5.366a4.626,4.626,0,0,0-3.146-1.8,28.31,28.31,0,0,0-6.546-.648,3.284,3.284,0,0,1-1.642-.254c-.972-.509-1.11-1.85-1.133-2.961q0-16.538.925-33.077a28.472,28.472,0,0,0-.162-7.425,9.391,9.391,0,0,0-3.747-6.176c-2.5-1.642-7.864-1.411-9.368,1.689-.625,1.3,0,3.123.116,4.626.185,2.544.254,5.089.324,7.633.208,9.969-.185,19.939.324,29.908a110.85,110.85,0,0,0,1.966,16.816Z" transform="translate(171.636 238.534)" fill="#f3a984"/>
    <path id="Path_36" data-name="Path 36" d="M170.628,279.372a1.9,1.9,0,0,0-.185,1.48,6.43,6.43,0,0,1-.694,4.164c-1.411,2.313-4.464,2.66-7.078,2.521-1.342,0-2.938-.116-3.7.995a3.447,3.447,0,0,0-.37,2.1,10.269,10.269,0,0,0,.254,2.776,1.965,1.965,0,0,0,.278.9,1.712,1.712,0,0,0,.9.578,11.1,11.1,0,0,0,7.633-1.041l13.023-5.066c4.626-1.827,6.292-6.014,1.064-8.651C179.695,279.094,172.131,277.5,170.628,279.372Z" transform="translate(173.374 267.279)" fill="#feb30b"/>
    <path id="Path_37" data-name="Path 37" d="M170.628,279.372a1.9,1.9,0,0,0-.185,1.48,6.43,6.43,0,0,1-.694,4.164c-1.411,2.313-4.464,2.66-7.078,2.521-1.342,0-2.938-.116-3.7.995a3.447,3.447,0,0,0-.37,2.1,10.269,10.269,0,0,0,.254,2.776,1.965,1.965,0,0,0,.278.9,1.712,1.712,0,0,0,.9.578,11.1,11.1,0,0,0,7.633-1.041l13.023-5.066c4.626-1.827,6.292-6.014,1.064-8.651C179.695,279.094,172.131,277.5,170.628,279.372Z" transform="translate(173.374 267.279)" fill="url(#linear-gradient-15)"/>
    <path id="Path_38" data-name="Path 38" d="M146.9,227.884a103.6,103.6,0,0,0-2.429,22.691l-1.018,30.972c-.162,5.228-.278,10.686,2.036,15.359a22.53,22.53,0,0,0,11.38,9.9c10.686,4.765,22.853,4.372,34.534,3.909a12.468,12.468,0,0,0,6.638-1.527c2.706-1.85,3.493-5.436,3.7-8.674.6-10.131-2.614-20.031-4.626-30.07a126.406,126.406,0,0,1-2.475-25.906,11.912,11.912,0,0,0-1.3-6.939,10.848,10.848,0,0,0-3.77-2.984,113.824,113.824,0,0,0-23.131-9.784,28.8,28.8,0,0,0-13.231-1.527C150.693,223.883,147.593,225.294,146.9,227.884Z" transform="translate(153.431 194.531)" fill="#606161"/>
    <path id="Path_39" data-name="Path 39" d="M146.9,227.884a103.6,103.6,0,0,0-2.429,22.691l-1.018,30.972c-.162,5.228-.278,10.686,2.036,15.359a22.53,22.53,0,0,0,11.38,9.9c10.686,4.765,22.853,4.372,34.534,3.909a12.468,12.468,0,0,0,6.638-1.527c2.706-1.85,3.493-5.436,3.7-8.674.6-10.131-2.614-20.031-4.626-30.07a126.406,126.406,0,0,1-2.475-25.906,11.912,11.912,0,0,0-1.3-6.939,10.848,10.848,0,0,0-3.77-2.984,113.824,113.824,0,0,0-23.131-9.784,28.8,28.8,0,0,0-13.231-1.527C150.693,223.883,147.593,225.294,146.9,227.884Z" transform="translate(153.431 194.531)" fill="url(#linear-gradient-16)"/>
    <path id="Path_40" data-name="Path 40" d="M178.387,194.722c-5.76-3.03-11.727-6.13-18.227-6.523s-13.693,2.66-15.983,8.767a22.531,22.531,0,0,0-.995,8.073l-.3,53.455a37.818,37.818,0,0,0,1.457,13c2.452,6.939,8.674,11.75,15.22,15.035,8.165,4.071,17.718,6.245,26.508,3.793a12.722,12.722,0,0,0,6.754-3.955c2.313-2.938,2.313-6.939,2.313-10.686l-.393-55.514a43.373,43.373,0,0,0-.532-7.749C192.5,203.743,185.766,198.539,178.387,194.722Z" transform="translate(152.684 148.656)" fill="#feb30b"/>
    <path id="Path_41" data-name="Path 41" d="M178.387,194.722c-5.76-3.03-11.727-6.13-18.227-6.523s-13.693,2.66-15.983,8.767a22.531,22.531,0,0,0-.995,8.073l-.3,53.455a37.818,37.818,0,0,0,1.457,13c2.452,6.939,8.674,11.75,15.22,15.035,8.165,4.071,17.718,6.245,26.508,3.793a12.722,12.722,0,0,0,6.754-3.955c2.313-2.938,2.313-6.939,2.313-10.686l-.393-55.514a43.373,43.373,0,0,0-.532-7.749C192.5,203.743,185.766,198.539,178.387,194.722Z" transform="translate(152.684 148.656)" fill="url(#linear-gradient-17)"/>
    <path id="Path_42" data-name="Path 42" d="M172.693,194.147a11.149,11.149,0,0,1-3.955,7.818,9.391,9.391,0,0,0-2.313,2.313c-1.133,2.036-.139,4.626-.578,6.939a2.8,2.8,0,0,1-3.192,2.313,8.535,8.535,0,0,1-6.939-4.279,19.824,19.824,0,0,1-2.452-8.211,62.843,62.843,0,0,1-.3-12.514,18.665,18.665,0,0,1,1.8-7.448,10.015,10.015,0,0,1,10.247-5.274,8.42,8.42,0,0,1,6.569,6.708c.278,1.642,0,3.354.116,5a53.066,53.066,0,0,1,.995,6.639Z" transform="translate(165.78 132.299)" fill="#f3a984"/>
    <path id="Path_43" data-name="Path 43" d="M146.426,205.316a82.691,82.691,0,0,0-1.92,13.485,40.34,40.34,0,0,0,5.3,20.957c2.151,3.747,5.436,7.425,9.761,7.8a10.848,10.848,0,0,0,10.039-6.662,27.041,27.041,0,0,0,1.712-12.606,52.528,52.528,0,0,1,.231-12.791c.9-4.325,3.123-8.235,4.325-12.491a53.665,53.665,0,0,0,.971-17.325,8.861,8.861,0,0,0-.786-3.886,7.31,7.31,0,0,0-3.03-2.706,20.818,20.818,0,0,0-19.06-.393c-4.858,2.452-5.366,5.551-4.788,10.2C149.8,193.912,147.444,200.134,146.426,205.316Z" transform="translate(154.898 133.436)" fill="#606161"/>
    <path id="Path_44" data-name="Path 44" d="M146.426,205.316a82.691,82.691,0,0,0-1.92,13.485,40.34,40.34,0,0,0,5.3,20.957c2.151,3.747,5.436,7.425,9.761,7.8a10.848,10.848,0,0,0,10.039-6.662,27.041,27.041,0,0,0,1.712-12.606,52.528,52.528,0,0,1,.231-12.791c.9-4.325,3.123-8.235,4.325-12.491a53.665,53.665,0,0,0,.971-17.325,8.861,8.861,0,0,0-.786-3.886,7.31,7.31,0,0,0-3.03-2.706,20.818,20.818,0,0,0-19.06-.393c-4.858,2.452-5.366,5.551-4.788,10.2C149.8,193.912,147.444,200.134,146.426,205.316Z" transform="translate(154.898 133.436)" fill="url(#linear-gradient-18)"/>
    <ellipse id="Ellipse_1" data-name="Ellipse 1" cx="33.933" cy="19.615" rx="33.933" ry="19.615" transform="translate(277.476 307.929) rotate(-20.54)" fill="#feb30b"/>
    <ellipse id="Ellipse_2" data-name="Ellipse 2" cx="33.933" cy="19.615" rx="33.933" ry="19.615" transform="translate(277.205 307.695) rotate(-20.54)" fill="url(#linear-gradient-19)"/>
    <path id="Path_45" data-name="Path 45" d="M187.82,232.792a332.478,332.478,0,0,1,6.315,47.788c.162,2.66,0,5.852-2.2,7.309a5.2,5.2,0,0,1-5.621-.439,14.3,14.3,0,0,1-3.817-4.626c-8.836-14.48-14.711-30.556-19.731-46.77a72.493,72.493,0,0,1-4.21-22.3c.116-5.621,1.527-12.514,5.366-16.862,4.9-5.574,8.674-.694,11.959,3.978C182.454,210.332,185.53,221.759,187.82,232.792Z" transform="translate(173.367 156.847)" fill="#feb30b"/>
    <path id="Path_46" data-name="Path 46" d="M187.82,232.792a332.478,332.478,0,0,1,6.315,47.788c.162,2.66,0,5.852-2.2,7.309a5.2,5.2,0,0,1-5.621-.439,14.3,14.3,0,0,1-3.817-4.626c-8.836-14.48-14.711-30.556-19.731-46.77a72.493,72.493,0,0,1-4.21-22.3c.116-5.621,1.527-12.514,5.366-16.862,4.9-5.574,8.674-.694,11.959,3.978C182.454,210.332,185.53,221.759,187.82,232.792Z" transform="translate(173.367 156.847)" fill="url(#linear-gradient-20)"/>
    <path id="Path_47" data-name="Path 47" d="M162.327,168.406a14.619,14.619,0,0,0-15.521,5.482c-3.354,4.95-2.984,11.565-1.249,17.3a4.442,4.442,0,0,0,1.388,2.313,4.626,4.626,0,0,0,2.313.648c4.626.486,9.437.9,13.647-.995s11.149-8.651,11.126-13.323C173.892,174.767,166.652,169.563,162.327,168.406Z" transform="translate(154.588 122.071)" fill="#feb30b"/>
    <path id="Path_48" data-name="Path 48" d="M173.858,177.249c0,4.626-7.147,11.565-11.149,13.346a26.6,26.6,0,0,1-13.647.971,4.627,4.627,0,0,1-2.313-.6,5.2,5.2,0,0,1-1.388-2.429,36.728,36.728,0,0,1-1.041-4.788,1.547,1.547,0,0,0,.509,0c4.626.439,9.46.879,13.67-1.041,3.84-1.689,10.617-8.119,11.056-12.768A10.571,10.571,0,0,1,173.858,177.249Z" transform="translate(154.669 124.724)" fill="url(#linear-gradient-21)"/>
    <path id="Path_49" data-name="Path 49" d="M169.759,172.655c-.439,4.626-7.217,11.08-11.057,12.768-4.21,1.92-9.09,1.48-13.67,1.041a1.548,1.548,0,0,1-.509,0,17.9,17.9,0,0,1,2.313-12.491,14.665,14.665,0,0,1,15.5-5.528A19.73,19.73,0,0,1,169.759,172.655Z" transform="translate(154.558 122.148)" fill="url(#linear-gradient-22)"/>
    <path id="Path_50" data-name="Path 50" d="M168,257.569a35.275,35.275,0,0,1,3.562-20.193,8.674,8.674,0,0,1,1.9-2.637,6.384,6.384,0,0,1,7.633,0,11.82,11.82,0,0,1,4.164,6.384,23.269,23.269,0,0,1,.717,10.987l-1.434-.255a21.858,21.858,0,0,0-.671-10.293,10.386,10.386,0,0,0-3.608-5.644,4.973,4.973,0,0,0-5.852,0,7.54,7.54,0,0,0-1.55,2.313,33.7,33.7,0,0,0-3.423,19.337Z" transform="translate(185.434 208.147)" fill="#feb30b"/>
    <path id="Path_51" data-name="Path 51" d="M199.3,239.59l13.092,64.766a5.043,5.043,0,0,1,0,2.036c-.324,1.342-1.665,2.128-2.891,2.753a331.3,331.3,0,0,1-40.988,16.191,1.226,1.226,0,0,1-.856,0,1.156,1.156,0,0,1-.463-.671,17.6,17.6,0,0,1-.648-5.505q-.347-21.234-2.313-42.376c-.324-3.562-.694-7.1-1.11-10.64-.3-2.683-1.827-7.217-1.18-9.784.995-3.932,12.236-6.268,15.868-7.749C179.681,247.871,199.3,240.538,199.3,239.59Z" transform="translate(177.597 216.18)" fill="#feb30b"/>
    <path id="Path_52" data-name="Path 52" d="M199.3,239.59l13.092,64.766a5.043,5.043,0,0,1,0,2.036c-.324,1.342-1.665,2.128-2.891,2.753a331.3,331.3,0,0,1-40.988,16.191,1.226,1.226,0,0,1-.856,0,1.156,1.156,0,0,1-.463-.671,17.6,17.6,0,0,1-.648-5.505q-.347-21.234-2.313-42.376c-.324-3.562-.694-7.1-1.11-10.64-.3-2.683-1.827-7.217-1.18-9.784.995-3.932,12.236-6.268,15.868-7.749C179.681,247.871,199.3,240.538,199.3,239.59Z" transform="translate(177.597 216.18)" fill="url(#linear-gradient-23)"/>
    <path id="Path_53" data-name="Path 53" d="M202.726,238.36l13.092,64.65a4.787,4.787,0,0,1,0,2.059c-.324,1.342-1.665,2.128-2.891,2.753a331.2,331.2,0,0,1-40.988,16.192,1.11,1.11,0,0,1-.856,0,1.018,1.018,0,0,1-.463-.671,17.6,17.6,0,0,1-.648-5.505c-.231-14.133-1.018-28.289-2.313-42.376-.324-3.539-.694-7.1-1.11-10.64-.3-2.66-1.827-7.194-1.18-9.761.995-3.932,12.236-6.292,15.868-7.772C183.227,246.618,202.888,239.193,202.726,238.36Z" transform="translate(182.101 214.565)" fill="#feb30b"/>
    <path id="Path_54" data-name="Path 54" d="M175.257,259.923a35.228,35.228,0,0,1-5.644-19.707,8.928,8.928,0,0,1,.532-3.215,6.292,6.292,0,0,1,6.939-3.331,11.8,11.8,0,0,1,6.546,3.909,23.5,23.5,0,0,1,5.459,9.553l-1.388.393a22.136,22.136,0,0,0-5.135-8.952,10.479,10.479,0,0,0-5.713-3.493,4.973,4.973,0,0,0-5.3,2.5,7.541,7.541,0,0,0-.416,2.66,33.563,33.563,0,0,0,5.413,18.9Z" transform="translate(187.874 208.222)" fill="#feb30b"/>
    <path id="Path_55" data-name="Path 55" d="M203.67,239.37l13.046,64.651a4.788,4.788,0,0,1,0,2.059c-.3,1.342-1.665,2.128-2.891,2.753a331.176,331.176,0,0,1-40.988,16.192.972.972,0,0,1-.833,0,1.017,1.017,0,0,1-.463-.671,17.53,17.53,0,0,1-.648-5.505c-.231-14.133-1.018-28.289-2.313-42.376-.347-3.539-.717-7.1-1.11-10.64-.324-2.66-1.827-7.194-1.18-9.761.995-3.932,12.213-6.292,15.868-7.772C184.194,247.628,203.855,240.2,203.67,239.37Z" transform="translate(183.308 215.891)" fill="url(#linear-gradient-24)"/>
    <path id="Path_56" data-name="Path 56" d="M207.081,238.13,220.149,302.9a4.626,4.626,0,0,1,.116,2.036c-.3,1.342-1.642,2.128-2.891,2.753a331.31,331.31,0,0,1-40.988,16.192,1.181,1.181,0,0,1-.833,0,1.157,1.157,0,0,1-.463-.671,17.6,17.6,0,0,1-.648-5.505q-.347-21.234-2.313-42.376c-.324-3.562-.717-7.1-1.11-10.64-.3-2.683-1.827-7.217-1.18-9.784.995-3.932,12.213-6.268,15.868-7.749C187.581,246.411,207.242,238.963,207.081,238.13Z" transform="translate(187.97 214.263)" fill="#feb30b"/>
    <path id="Path_57" data-name="Path 57" d="M207.081,238.13,220.149,302.9a4.626,4.626,0,0,1,.116,2.036c-.3,1.342-1.642,2.128-2.891,2.753a331.31,331.31,0,0,1-40.988,16.192,1.181,1.181,0,0,1-.833,0,1.157,1.157,0,0,1-.463-.671,17.6,17.6,0,0,1-.648-5.505q-.347-21.234-2.313-42.376c-.324-3.562-.717-7.1-1.11-10.64-.3-2.683-1.827-7.217-1.18-9.784.995-3.932,12.213-6.268,15.868-7.749C187.581,246.411,207.242,238.963,207.081,238.13Z" transform="translate(187.97 214.263)" fill="url(#linear-gradient-25)"/>
    <path id="Path_58" data-name="Path 58" d="M173.564,232.207a6.731,6.731,0,0,0-4.048,1.573,4.187,4.187,0,0,0-.74,3.192c.139,1.11.486,2.174.6,3.285.231,2.174-.416,4.626.578,6.477a6.153,6.153,0,0,0,5.32,2.845,8.05,8.05,0,0,0,8.235-5.2,9.6,9.6,0,0,0,.162-3.354c-.3-2.66-1.3-8.026-3.215-10.039S175.761,231.744,173.564,232.207Z" transform="translate(186.698 203.925)" fill="#f3a984"/>
    <path id="Path_59" data-name="Path 59" d="M112.774,224.037V213.05a31.481,31.481,0,0,1-16.654-4.788l2.614-7.286a29.029,29.029,0,0,0,15.683,4.626c7.726,0,12.953-4.441,12.953-10.663s-4.256-9.669-12.306-12.93c-11.1-4.372-17.95-9.368-17.95-18.828,0-9.044,6.407-15.891,16.423-17.533V134.66h6.754v10.548a29.1,29.1,0,0,1,14.133,3.817l-2.706,7.24a26.23,26.23,0,0,0-13.717-3.7c-8.373,0-11.565,5-11.565,9.252,0,5.667,4.025,8.489,13.508,12.421,11.2,4.626,16.862,10.224,16.862,19.892,0,8.6-5.991,16.654-17.209,18.5v11.311Z" transform="translate(91.378 78.399)" fill="#fff"/>
    <path id="Path_60" data-name="Path 60" d="M74.454,263.967V252.98A31.481,31.481,0,0,1,57.8,248.192l2.776-7.286a29.029,29.029,0,0,0,15.683,4.626c7.726,0,12.93-4.441,12.93-10.663s-4.233-9.669-12.282-12.93c-11.1-4.372-17.949-9.368-17.949-18.828,0-9.044,6.407-15.891,16.423-17.533V174.59h6.754v10.548a29.1,29.1,0,0,1,14.133,3.817l-2.706,7.194a26.23,26.23,0,0,0-13.717-3.7c-8.373,0-11.565,5-11.565,9.252,0,5.667,4.025,8.489,13.508,12.421,11.2,4.626,16.862,10.224,16.862,19.892,0,8.6-5.991,16.654-17.209,18.5v11.311Z" transform="translate(41.061 130.83)" fill="#fff"/>
    <path id="Path_61" data-name="Path 61" d="M461.694,263.967V252.98a31.48,31.48,0,0,1-16.654-4.788l2.614-7.286a28.983,28.983,0,0,0,15.682,4.626c7.726,0,12.93-4.441,12.93-10.663s-4.233-9.669-12.282-12.93c-11.1-4.372-17.949-9.368-17.949-18.828,0-9.044,6.407-15.891,16.423-17.533V174.59h6.754v10.548a29.1,29.1,0,0,1,14.133,3.817l-2.706,7.194a26.231,26.231,0,0,0-13.717-3.7c-8.4,0-11.565,5-11.565,9.252,0,5.667,4.025,8.489,13.508,12.421,11.2,4.626,16.862,10.224,16.862,19.892,0,8.6-5.991,16.654-17.209,18.5v11.311Z" transform="translate(549.537 130.83)" fill="#fff"/>
    <path id="Path_62" data-name="Path 62" d="M409.694,199.217V188.23a31.435,31.435,0,0,1-16.654-4.788l2.614-7.286a28.959,28.959,0,0,0,15.659,4.626c7.726,0,12.953-4.464,12.953-10.663s-4.233-9.669-12.306-12.953c-11.08-4.349-17.949-9.252-17.949-18.805,0-9.044,6.43-15.891,16.446-17.533V109.84h6.731v10.548a29.283,29.283,0,0,1,14.156,3.817l-2.729,7.194a26.161,26.161,0,0,0-13.717-3.7c-8.373,0-11.565,5-11.565,9.252,0,5.667,4.025,8.489,13.485,12.4,11.218,4.626,16.862,10.247,16.862,19.916,0,8.6-5.968,16.654-17.186,18.5v11.311Z" transform="translate(481.257 45.808)" fill="#fff"/>
  </g>
</svg>
